<svg width="158" height="32" viewBox="0 0 158 32" fill="none" xmlns="http://www.w3.org/2000/svg">
<path d="M12 19.5C12.8284 19.5 13.5 18.8284 13.5 18C13.5 17.1716 12.8284 16.5 12 16.5C11.1716 16.5 10.5 17.1716 10.5 18C10.5 18.8284 11.1716 19.5 12 19.5Z" fill="#858584"/>
<path d="M20 19.5C20.8284 19.5 21.5 18.8284 21.5 18C21.5 17.1716 20.8284 16.5 20 16.5C19.1716 16.5 18.5 17.1716 18.5 18C18.5 18.8284 19.1716 19.5 20 19.5Z" fill="#858584"/>
<path fill-rule="evenodd" clip-rule="evenodd" d="M15.9917 9.99959C13.8239 9.98356 11.6668 10.3055 9.59816 10.9539C9.07115 11.119 8.51003 10.8257 8.34486 10.2987C8.17969 9.77168 8.47302 9.21056 9.00003 9.04539C11.2646 8.33563 13.6259 7.98281 15.9991 7.99959C18.3722 7.98281 20.7335 8.33563 22.9982 9.04539C23.5252 9.21056 23.8185 9.77168 23.6533 10.2987C23.4882 10.8257 22.927 11.119 22.4 10.9539C20.3314 10.3055 18.1743 9.98356 16.0065 9.99959H15.9917Z" fill="#858584"/>
<path fill-rule="evenodd" clip-rule="evenodd" d="M8.34486 21.7012C8.51003 21.1742 9.07115 20.8809 9.59816 21.046C11.6668 21.6944 13.8239 22.0163 15.9917 22.0003H16.0065C18.1743 22.0163 20.3314 21.6944 22.4 21.046C22.927 20.8809 23.4882 21.1742 23.6533 21.7012C23.8185 22.2282 23.5252 22.7893 22.9982 22.9545C20.7335 23.6643 18.3722 24.0171 15.9991 24.0003C13.6259 24.0171 11.2646 23.6643 9.00003 22.9545C8.47302 22.7893 8.17969 22.2282 8.34486 21.7012Z" fill="#858584"/>
<path fill-rule="evenodd" clip-rule="evenodd" d="M20.2195 4.81121C20.6499 4.56852 21.1546 4.49267 21.6373 4.59812C22.9549 4.88366 24.2448 5.28424 25.4924 5.79524C25.7732 5.90352 26.0254 6.07496 26.2294 6.29638C26.4357 6.52018 26.587 6.78885 26.6715 7.08115L30.9074 21.2255C31.0178 21.594 31.0204 21.9865 30.9147 22.3563C30.809 22.7262 30.5995 23.0581 30.3111 23.3126L30.3059 23.3171C28.2385 25.1161 25.4371 26.4777 22.2551 27.2577C21.8132 27.3703 21.3457 27.3265 20.9322 27.1336C20.5205 26.9414 20.1877 26.6132 19.9898 26.2044L18.4816 23.2129C18.2329 22.7197 18.4311 22.1184 18.9243 21.8698C19.4175 21.6211 20.0188 21.8194 20.2674 22.3125L21.7799 25.3125L21.781 25.3147C24.7189 24.5943 27.2131 23.3571 28.9931 21.8083L29.6495 22.5627L28.9879 21.8128C28.9897 21.8113 28.991 21.8092 28.9917 21.8069C28.9923 21.8046 28.9923 21.8022 28.9916 21.7999L24.7555 7.65465C24.752 7.65325 24.7485 7.65182 24.7449 7.65037C23.602 7.18149 22.4201 6.81412 21.2127 6.55253L21.2106 6.55205C21.2076 6.55139 21.2044 6.55186 21.2017 6.55337C21.1993 6.55473 21.1975 6.55684 21.1964 6.55937L20.2115 9.53905C20.0381 10.0634 19.4725 10.348 18.9481 10.1747C18.4238 10.0013 18.1392 9.43574 18.3125 8.91136L19.3029 5.91516C19.4624 5.44707 19.7887 5.0541 20.2195 4.81121Z" fill="#858584"/>
<path fill-rule="evenodd" clip-rule="evenodd" d="M10.7982 6.55337C10.7955 6.55186 10.7924 6.55139 10.7894 6.55205L10.7872 6.55252C9.57988 6.81412 8.39792 7.18148 7.25502 7.65037C7.25149 7.65182 7.24795 7.65324 7.24441 7.65465L3.00842 21.7996C3.00774 21.8019 3.00764 21.8046 3.00829 21.8069C3.00888 21.809 3.01 21.8108 3.01152 21.8123C4.79121 23.3593 7.2836 24.5949 10.2189 25.3147L10.22 25.3125L11.7325 22.3125C11.9812 21.8194 12.5825 21.6211 13.0756 21.8698C13.5688 22.1184 13.767 22.7197 13.5184 23.2129L12.0101 26.2045C11.8123 26.6132 11.4795 26.9414 11.0677 27.1336C10.6542 27.3265 10.1868 27.3703 9.74481 27.2577C6.56287 26.4777 3.76151 25.1161 1.69404 23.3171L1.68886 23.3126C1.40039 23.0581 1.19093 22.7262 1.08525 22.3563C0.979591 21.9865 0.982107 21.5942 1.09249 21.2258C1.09246 21.2259 1.09252 21.2257 1.09249 21.2258L5.32839 7.08117C5.41291 6.78887 5.56426 6.52019 5.77051 6.29638C5.97457 6.07496 6.22679 5.90352 6.5076 5.79524C7.75546 5.28409 9.04577 4.88344 10.3637 4.59788C10.8461 4.49279 11.3504 4.5687 11.7805 4.81121C12.2113 5.05409 12.5375 5.44708 12.697 5.91518L12.7 5.92385L13.6874 8.91136C13.8608 9.43574 13.5762 10.0013 13.0518 10.1747C12.5274 10.348 11.9618 10.0634 11.7885 9.53905L10.8036 6.55937C10.8025 6.55684 10.8006 6.55473 10.7982 6.55337Z" fill="#858584"/>
<path d="M12 19.5C12.8284 19.5 13.5 18.8284 13.5 18C13.5 17.1716 12.8284 16.5 12 16.5C11.1716 16.5 10.5 17.1716 10.5 18C10.5 18.8284 11.1716 19.5 12 19.5Z" fill="#858584"/>
<path d="M20 19.5C20.8284 19.5 21.5 18.8284 21.5 18C21.5 17.1716 20.8284 16.5 20 16.5C19.1716 16.5 18.5 17.1716 18.5 18C18.5 18.8284 19.1716 19.5 20 19.5Z" fill="#858584"/>
<path fill-rule="evenodd" clip-rule="evenodd" d="M15.9917 9.99959C13.8239 9.98356 11.6668 10.3055 9.59816 10.9539C9.07115 11.119 8.51003 10.8257 8.34486 10.2987C8.17969 9.77168 8.47302 9.21056 9.00003 9.04539C11.2646 8.33563 13.6259 7.98281 15.9991 7.99959C18.3722 7.98281 20.7335 8.33563 22.9982 9.04539C23.5252 9.21056 23.8185 9.77168 23.6533 10.2987C23.4882 10.8257 22.927 11.119 22.4 10.9539C20.3314 10.3055 18.1743 9.98356 16.0065 9.99959H15.9917Z" fill="#858584"/>
<path fill-rule="evenodd" clip-rule="evenodd" d="M8.34486 21.7012C8.51003 21.1742 9.07115 20.8809 9.59816 21.046C11.6668 21.6944 13.8239 22.0163 15.9917 22.0003H16.0065C18.1743 22.0163 20.3314 21.6944 22.4 21.046C22.927 20.8809 23.4882 21.1742 23.6533 21.7012C23.8185 22.2282 23.5252 22.7893 22.9982 22.9545C20.7335 23.6643 18.3722 24.0171 15.9991 24.0003C13.6259 24.0171 11.2646 23.6643 9.00003 22.9545C8.47302 22.7893 8.17969 22.2282 8.34486 21.7012Z" fill="#858584"/>
<path fill-rule="evenodd" clip-rule="evenodd" d="M20.2195 4.81121C20.6499 4.56852 21.1546 4.49267 21.6373 4.59812C22.9549 4.88366 24.2448 5.28424 25.4924 5.79524C25.7732 5.90352 26.0254 6.07496 26.2294 6.29638C26.4357 6.52018 26.587 6.78885 26.6715 7.08115L30.9074 21.2255C31.0178 21.594 31.0204 21.9865 30.9147 22.3563C30.809 22.7262 30.5995 23.0581 30.3111 23.3126L30.3059 23.3171C28.2385 25.1161 25.4371 26.4777 22.2551 27.2577C21.8132 27.3703 21.3457 27.3265 20.9322 27.1336C20.5205 26.9414 20.1877 26.6132 19.9898 26.2044L18.4816 23.2129C18.2329 22.7197 18.4311 22.1184 18.9243 21.8698C19.4175 21.6211 20.0188 21.8194 20.2674 22.3125L21.7799 25.3125L21.781 25.3147C24.7189 24.5943 27.2131 23.3571 28.9931 21.8083L29.6495 22.5627L28.9879 21.8128C28.9897 21.8113 28.991 21.8092 28.9917 21.8069C28.9923 21.8046 28.9923 21.8022 28.9916 21.7999L24.7555 7.65465C24.752 7.65325 24.7485 7.65182 24.7449 7.65037C23.602 7.18149 22.4201 6.81412 21.2127 6.55253L21.2106 6.55205C21.2076 6.55139 21.2044 6.55186 21.2017 6.55337C21.1993 6.55473 21.1975 6.55684 21.1964 6.55937L20.2115 9.53905C20.0381 10.0634 19.4725 10.348 18.9481 10.1747C18.4238 10.0013 18.1392 9.43574 18.3125 8.91136L19.3029 5.91516C19.4624 5.44707 19.7887 5.0541 20.2195 4.81121Z" fill="#858584"/>
<path fill-rule="evenodd" clip-rule="evenodd" d="M10.7982 6.55337C10.7955 6.55186 10.7924 6.55139 10.7894 6.55205L10.7872 6.55252C9.57988 6.81412 8.39792 7.18148 7.25502 7.65037C7.25149 7.65182 7.24795 7.65324 7.24441 7.65465L3.00842 21.7996C3.00774 21.8019 3.00764 21.8046 3.00829 21.8069C3.00888 21.809 3.01 21.8108 3.01152 21.8123C4.79121 23.3593 7.2836 24.5949 10.2189 25.3147L10.22 25.3125L11.7325 22.3125C11.9812 21.8194 12.5825 21.6211 13.0756 21.8698C13.5688 22.1184 13.767 22.7197 13.5184 23.2129L12.0101 26.2045C11.8123 26.6132 11.4795 26.9414 11.0677 27.1336C10.6542 27.3265 10.1868 27.3703 9.74481 27.2577C6.56287 26.4777 3.76151 25.1161 1.69404 23.3171L1.68886 23.3126C1.40039 23.0581 1.19093 22.7262 1.08525 22.3563C0.979591 21.9865 0.982107 21.5942 1.09249 21.2258C1.09246 21.2259 1.09252 21.2257 1.09249 21.2258L5.32839 7.08117C5.41291 6.78887 5.56426 6.52019 5.77051 6.29638C5.97457 6.07496 6.22679 5.90352 6.5076 5.79524C7.75546 5.28409 9.04577 4.88344 10.3637 4.59788C10.8461 4.49279 11.3504 4.5687 11.7805 4.81121C12.2113 5.05409 12.5375 5.44708 12.697 5.91518L12.7 5.92385L13.6874 8.91136C13.8608 9.43574 13.5762 10.0013 13.0518 10.1747C12.5274 10.348 11.9618 10.0634 11.7885 9.53905L10.8036 6.55937C10.8025 6.55684 10.8006 6.55473 10.7982 6.55337Z" fill="#858584"/>
<path fill-rule="evenodd" clip-rule="evenodd" d="M55.5281 11.1183C55.8533 10.9443 56.2478 10.9634 56.5547 11.168L62.5547 15.168C62.8329 15.3534 63 15.6656 63 16C63 16.3344 62.8329 16.6466 62.5547 16.8321L56.5547 20.8321C56.2478 21.0366 55.8533 21.0557 55.5281 20.8817C55.203 20.7077 55 20.3688 55 20V12C55 11.6312 55.203 11.2923 55.5281 11.1183ZM57 13.8685V18.1315L60.1972 16L57 13.8685Z" fill="#858584"/>
<path fill-rule="evenodd" clip-rule="evenodd" d="M57.9985 5.04985L57.9816 5.0498L57.9188 5.04983C57.8643 5.04996 57.785 5.05035 57.6831 5.05143C57.4794 5.05359 57.1856 5.0585 56.8206 5.06945C56.0912 5.09135 55.0746 5.13749 53.9237 5.23466C51.6473 5.42685 48.7493 5.82571 46.5181 6.67823L46.5034 6.68398C46.0651 6.85941 45.6742 7.13539 45.3622 7.48966C45.0502 7.84393 44.8258 8.26657 44.7071 8.7235L44.7061 8.72726C44.3947 9.94582 44 12.2055 44 15.9999C44 19.7942 44.3947 22.0539 44.7061 23.2725L44.7071 23.2762C44.8258 23.7332 45.0502 24.1558 45.3622 24.5101C45.6742 24.8643 46.0651 25.1403 46.5034 25.3157L46.5181 25.3215C48.7493 26.174 51.6473 26.5729 53.9237 26.7651C55.0746 26.8622 56.0912 26.9084 56.8206 26.9303C57.1856 26.9412 57.4794 26.9461 57.6831 26.9483C57.785 26.9494 57.8643 26.9498 57.9188 26.9499L57.9816 26.9499L57.9985 26.9499H58.0015L58.0184 26.9499L58.0812 26.9499C58.1357 26.9498 58.215 26.9494 58.3169 26.9483C58.5206 26.9461 58.8144 26.9412 59.1794 26.9303C59.9088 26.9084 60.9254 26.8622 62.0763 26.7651C64.3527 26.5729 67.2507 26.174 69.4819 25.3215L69.4966 25.3157C69.9349 25.1403 70.3258 24.8643 70.6378 24.5101C70.9498 24.1558 71.1742 23.7332 71.2929 23.2762L71.2939 23.2725C71.6053 22.0539 72 19.7942 72 15.9999C72 12.2055 71.6053 9.94582 71.2939 8.72726L71.2929 8.7235C71.1742 8.26657 70.9498 7.84393 70.6378 7.48966C70.3258 7.13539 69.9349 6.85941 69.4966 6.68398L69.4819 6.67823C67.2507 5.82571 64.3527 5.42685 62.0763 5.23466C60.9254 5.13749 59.9088 5.09135 59.1794 5.06945C58.8144 5.0585 58.5206 5.05359 58.3169 5.05143C58.215 5.05035 58.1357 5.04996 58.0812 5.04983L58.0184 5.0498L58.0015 5.04985H57.9985ZM57.9947 24.9499L58.0054 24.9498L58.0086 24.9499L58.0217 24.9499L58.0767 24.9499C58.1259 24.9498 58.1996 24.9494 58.2957 24.9484C58.4877 24.9464 58.7686 24.9417 59.1194 24.9312C59.8216 24.9101 60.8011 24.8656 61.9081 24.7722C64.1441 24.5834 66.8041 24.2018 68.7596 23.4565C68.9044 23.3974 69.0336 23.3056 69.1369 23.1882C69.2414 23.0695 69.3167 22.928 69.3567 22.7751C69.6203 21.7429 70 19.6529 70 15.9999C70 12.3468 69.6203 10.2568 69.3567 9.22464C69.3167 9.07168 69.2414 8.9302 69.1369 8.81154C69.0336 8.69415 68.9044 8.60233 68.7596 8.54326C66.8041 7.79791 64.1441 7.41635 61.9081 7.22757C60.8011 7.13411 59.8216 7.08963 59.1194 7.06855C58.7686 7.05802 58.4877 7.05336 58.2957 7.05132C58.1996 7.0503 58.1259 7.04994 58.0767 7.04983L58.0217 7.0498L58.0086 7.04983L58.0058 7.04985L57.9946 7.04991L57.9914 7.04983L57.9783 7.0498L57.9233 7.04983C57.8741 7.04994 57.8004 7.0503 57.7043 7.05132C57.5123 7.05336 57.2314 7.05802 56.8806 7.06855C56.1784 7.08963 55.1989 7.13411 54.0919 7.22757C51.8559 7.41635 49.1959 7.79791 47.2404 8.54327C47.0956 8.60234 46.9664 8.69415 46.8631 8.81154C46.7586 8.9302 46.6833 9.07168 46.6433 9.22464C46.3797 10.2569 46 12.3468 46 15.9999C46 19.6529 46.3797 21.7429 46.6433 22.7751C46.6833 22.928 46.7586 23.0695 46.8631 23.1882C46.9664 23.3056 47.0956 23.3974 47.2404 23.4565C49.1959 24.2018 51.8559 24.5834 54.0919 24.7722C55.1989 24.8656 56.1784 24.9101 56.8806 24.9312C57.2314 24.9417 57.5123 24.9464 57.7043 24.9484C57.8004 24.9494 57.8741 24.9498 57.9233 24.9499L57.9783 24.9499L57.9914 24.9499L57.9947 24.9499Z" fill="#858584"/>
<path d="M100.001 11.0005C100.001 8.25045 102.313 5.96295 105.063 6.00045C106.026 6.01157 106.966 6.3006 107.768 6.8328C108.571 7.365 109.203 8.11771 109.588 9.00045H114.001L109.963 13.038C109.703 17.0937 107.907 20.8979 104.942 23.6773C101.977 26.4566 98.0648 28.0025 94.0007 28.0005C90.0007 28.0005 89.0007 26.5005 89.0007 26.5005C89.0007 26.5005 93.0007 25.0005 95.0007 22.0005C95.0007 22.0005 87.0007 18.0005 89.0007 7.00045C89.0007 7.00045 94.0007 12.0005 100.001 13.0005V11.0005Z" stroke="#858584" stroke-width="2" stroke-linecap="round" stroke-linejoin="round"/>
<path fill-rule="evenodd" clip-rule="evenodd" d="M142 12C139.791 12 138 13.7909 138 16C138 18.2091 139.791 20 142 20C144.209 20 146 18.2091 146 16C146 13.7909 144.209 12 142 12ZM136 16C136 12.6863 138.686 10 142 10C145.314 10 148 12.6863 148 16C148 19.3137 145.314 22 142 22C138.686 22 136 19.3137 136 16Z" fill="#858584"/>
<path fill-rule="evenodd" clip-rule="evenodd" d="M136.5 5.5C133.739 5.5 131.5 7.73858 131.5 10.5V21.5C131.5 24.2614 133.739 26.5 136.5 26.5H147.5C150.261 26.5 152.5 24.2614 152.5 21.5V10.5C152.5 7.73858 150.261 5.5 147.5 5.5H136.5ZM129.5 10.5C129.5 6.63401 132.634 3.5 136.5 3.5H147.5C151.366 3.5 154.5 6.63401 154.5 10.5V21.5C154.5 25.366 151.366 28.5 147.5 28.5H136.5C132.634 28.5 129.5 25.366 129.5 21.5V10.5Z" fill="#858584"/>
<path d="M148.5 11C149.328 11 150 10.3284 150 9.5C150 8.67157 149.328 8 148.5 8C147.672 8 147 8.67157 147 9.5C147 10.3284 147.672 11 148.5 11Z" fill="#858584"/>
</svg>
